<mxfile host="app.diagrams.net" modified="2023-08-29T03:38:04.645Z" agent="Mozilla/5.0 (Windows NT 10.0; Win64; x64) AppleWebKit/537.36 (KHTML, like Gecko) Chrome/116.0.0.0 Safari/537.36" etag="ZuIB_jpu9SBboMggO6MI" version="21.6.9" type="device">
  <diagram name="Page-1" id="2cc2dc42-3aac-f2a9-1cec-7a8b7cbee084">
    <mxGraphModel dx="1981" dy="1158" grid="1" gridSize="10" guides="1" tooltips="1" connect="1" arrows="1" fold="1" page="1" pageScale="1" pageWidth="1100" pageHeight="850" background="none" math="0" shadow="0">
      <root>
        <mxCell id="0" />
        <mxCell id="1" parent="0" />
        <mxCell id="7026571954dc6520-1" value="" style="strokeWidth=1;shadow=0;dashed=0;align=center;html=1;shape=mxgraph.mockup.containers.browserWindow;rSize=0;strokeColor=#666666;mainText=,;recursiveResize=0;rounded=0;labelBackgroundColor=none;fontFamily=Verdana;fontSize=12" parent="1" vertex="1">
          <mxGeometry x="25" y="15" width="1050" height="820" as="geometry" />
        </mxCell>
        <mxCell id="7026571954dc6520-2" value="&lt;font style=&quot;font-size: 14px;&quot;&gt;DESKTOP VIEW&lt;/font&gt;" style="strokeWidth=1;shadow=0;dashed=0;align=center;html=1;shape=mxgraph.mockup.containers.anchor;fontSize=17;fontColor=#666666;align=left;" parent="7026571954dc6520-1" vertex="1">
          <mxGeometry x="60" y="12" width="110" height="26" as="geometry" />
        </mxCell>
        <mxCell id="7026571954dc6520-3" value="https://www.javascript-giphy-api.com" style="strokeWidth=1;shadow=0;dashed=0;align=center;html=1;shape=mxgraph.mockup.containers.anchor;rSize=0;fontSize=17;fontColor=#666666;align=left;" parent="7026571954dc6520-1" vertex="1">
          <mxGeometry x="130" y="60" width="250" height="26" as="geometry" />
        </mxCell>
        <mxCell id="7026571954dc6520-15" value="" style="verticalLabelPosition=bottom;shadow=0;dashed=0;align=center;html=1;verticalAlign=top;strokeWidth=1;shape=mxgraph.mockup.markup.line;strokeColor=#999999;rounded=0;labelBackgroundColor=none;fillColor=#ffffff;fontFamily=Verdana;fontSize=12;fontColor=#000000;" parent="7026571954dc6520-1" vertex="1">
          <mxGeometry y="170" width="1050" height="20" as="geometry" />
        </mxCell>
        <mxCell id="W9UuiEgfhQGYlAS1tFF7-3" value="HOME" style="text;html=1;points=[];align=left;verticalAlign=top;spacingTop=-4;fontSize=15;fontFamily=Verdana" parent="7026571954dc6520-1" vertex="1">
          <mxGeometry x="110" y="130" width="60" height="30" as="geometry" />
        </mxCell>
        <mxCell id="W9UuiEgfhQGYlAS1tFF7-4" value="CATEGORIES" style="text;html=1;points=[];align=left;verticalAlign=top;spacingTop=-4;fontSize=15;fontFamily=Verdana" parent="7026571954dc6520-1" vertex="1">
          <mxGeometry x="170" y="130" width="80" height="30" as="geometry" />
        </mxCell>
        <mxCell id="W9UuiEgfhQGYlAS1tFF7-5" value="TRENDING" style="text;html=1;points=[];align=left;verticalAlign=top;spacingTop=-4;fontSize=15;fontFamily=Verdana" parent="7026571954dc6520-1" vertex="1">
          <mxGeometry x="285" y="130" width="80" height="30" as="geometry" />
        </mxCell>
        <mxCell id="W9UuiEgfhQGYlAS1tFF7-6" value="POPULAR" style="text;html=1;points=[];align=left;verticalAlign=top;spacingTop=-4;fontSize=15;fontFamily=Verdana" parent="7026571954dc6520-1" vertex="1">
          <mxGeometry x="380" y="130" width="80" height="30" as="geometry" />
        </mxCell>
        <mxCell id="W9UuiEgfhQGYlAS1tFF7-41" value="" style="verticalLabelPosition=bottom;shadow=0;dashed=0;align=center;html=1;verticalAlign=top;strokeWidth=1;shape=mxgraph.mockup.markup.line;strokeColor=#999999;rounded=0;labelBackgroundColor=none;fillColor=#ffffff;fontFamily=Verdana;fontSize=12;fontColor=#000000;" parent="7026571954dc6520-1" vertex="1">
          <mxGeometry y="795" width="1050" height="20" as="geometry" />
        </mxCell>
        <mxCell id="WsRZixG4fA7pFhA6oEje-2" value="LOGO" style="whiteSpace=wrap;html=1;aspect=fixed;" vertex="1" parent="7026571954dc6520-1">
          <mxGeometry x="25" y="110" width="70" height="70" as="geometry" />
        </mxCell>
        <mxCell id="WsRZixG4fA7pFhA6oEje-3" value="JavaScript Giphy API" style="text;html=1;points=[];align=left;verticalAlign=top;spacingTop=-4;fontSize=15;fontFamily=Verdana" vertex="1" parent="7026571954dc6520-1">
          <mxGeometry x="443" y="235" width="165" height="30" as="geometry" />
        </mxCell>
        <mxCell id="WsRZixG4fA7pFhA6oEje-4" value="" style="rounded=1;whiteSpace=wrap;html=1;" vertex="1" parent="7026571954dc6520-1">
          <mxGeometry x="445" y="265" width="95" height="20" as="geometry" />
        </mxCell>
        <mxCell id="WsRZixG4fA7pFhA6oEje-6" value="GIPHY!" style="rounded=1;whiteSpace=wrap;html=1;" vertex="1" parent="7026571954dc6520-1">
          <mxGeometry x="545" y="265" width="55" height="20" as="geometry" />
        </mxCell>
        <mxCell id="WsRZixG4fA7pFhA6oEje-7" value="" style="rounded=1;whiteSpace=wrap;html=1;" vertex="1" parent="7026571954dc6520-1">
          <mxGeometry x="120" y="335" width="165" height="165" as="geometry" />
        </mxCell>
        <mxCell id="WsRZixG4fA7pFhA6oEje-8" value="" style="rounded=1;whiteSpace=wrap;html=1;" vertex="1" parent="7026571954dc6520-1">
          <mxGeometry x="395" y="335" width="165" height="165" as="geometry" />
        </mxCell>
        <mxCell id="WsRZixG4fA7pFhA6oEje-10" value="" style="rounded=1;whiteSpace=wrap;html=1;" vertex="1" parent="7026571954dc6520-1">
          <mxGeometry x="675" y="335" width="327" height="165" as="geometry" />
        </mxCell>
        <mxCell id="WsRZixG4fA7pFhA6oEje-11" value="" style="rounded=1;whiteSpace=wrap;html=1;" vertex="1" parent="7026571954dc6520-1">
          <mxGeometry x="120" y="555" width="327" height="165" as="geometry" />
        </mxCell>
        <mxCell id="WsRZixG4fA7pFhA6oEje-12" value="" style="rounded=1;whiteSpace=wrap;html=1;" vertex="1" parent="7026571954dc6520-1">
          <mxGeometry x="837" y="555" width="165" height="165" as="geometry" />
        </mxCell>
        <mxCell id="WsRZixG4fA7pFhA6oEje-13" value="" style="rounded=1;whiteSpace=wrap;html=1;" vertex="1" parent="7026571954dc6520-1">
          <mxGeometry x="560" y="555" width="165" height="165" as="geometry" />
        </mxCell>
      </root>
    </mxGraphModel>
  </diagram>
</mxfile>
